<svg xmlns="http://www.w3.org/2000/svg" width="24" height="24" fill="none"><path opacity=".32" fill-rule="evenodd" clip-rule="evenodd" d="M20.911 8.227c-1.44.362-3.14.386-4.608-.062a2.02 2.02 0 01-1.314-1.288c-.522-1.53-.65-3.403-.267-4.845C13.928 2.012 13.025 2 12 2c-3.484 0-5.56.137-6.737.264-.872.094-1.544.684-1.707 1.546C3.302 5.15 3 7.657 3 12s.302 6.85.556 8.19c.163.862.835 1.452 1.707 1.546C6.439 21.863 8.516 22 12 22s5.56-.137 6.737-.264c.872-.094 1.544-.684 1.707-1.546.254-1.34.556-3.847.556-8.19 0-1.456-.034-2.705-.089-3.773z" fill="currentColor"/><path d="M20.911 8.227c-1.44.362-3.14.386-4.608-.062a2.02 2.02 0 01-1.314-1.288c-.522-1.53-.65-3.403-.267-4.845 0 0 1.224.468 3.474 2.718s2.715 3.477 2.715 3.477z" fill="currentColor"/></svg>
